<svg xmlns="http://www.w3.org/2000/svg"  viewBox="0 0 72 72" width="64px" height="64px" fill="#2B7A78"><path d="M36,12c13.255,0,24,10.745,24,24c0,13.255-10.745,24-24,24S12,49.255,12,36C12,22.745,22.745,12,36,12z M40.243,44.485	c1.171,1.171,3.071,1.172,4.243,0c1.172-1.172,1.171-3.071,0-4.243C44.253,40.01,42.063,37.82,40.243,36	c1.82-1.82,4.01-4.01,4.243-4.243c1.171-1.171,1.172-3.071,0-4.243c-1.171-1.171-3.071-1.171-4.243,0	C40.01,27.747,37.82,29.937,36,31.757c-1.82-1.82-4.01-4.01-4.243-4.243c-1.171-1.171-3.071-1.172-4.243,0	c-1.172,1.172-1.171,3.071,0,4.243c0.232,0.232,2.423,2.423,4.243,4.243c-1.82,1.82-4.01,4.01-4.243,4.243	c-1.171,1.171-1.171,3.071,0,4.243c1.172,1.172,3.071,1.171,4.243,0c0.232-0.232,2.423-2.423,4.243-4.243	C37.82,42.063,40.01,44.253,40.243,44.485z"/></svg>